<svg xmlns="http://www.w3.org/2000/svg" xmlns:xlink="http://www.w3.org/1999/xlink" width="500" zoomAndPan="magnify" viewBox="0 0 375 374.999991" height="500" preserveAspectRatio="xMidYMid meet" version="1.0"><defs><g/></defs><g fill="#000000" fill-opacity="1"><g transform="translate(37.511721, 242.266933)"><g><path d="M 27.4375 -61.171875 L 26.125 -61.171875 C 23.53125 -61.171875 21.726562 -60.6875 20.71875 -59.71875 C 19.71875 -58.75 19.1875 -57 19.125 -54.46875 L 26.640625 -54.46875 L 26.640625 -43.359375 L 19.125 -43.359375 L 19.125 0 L 5.8125 0 L 5.8125 -43.359375 L 1 -43.359375 L 1 -54.46875 L 5.8125 -54.46875 C 6.34375 -59.34375 7.441406 -63.195312 9.109375 -66.03125 C 10.773438 -68.863281 12.894531 -70.898438 15.46875 -72.140625 C 18.039062 -73.378906 20.925781 -74 24.125 -74 C 24.59375 -74 25.0625 -74 25.53125 -74 C 26 -74 26.632812 -73.929688 27.4375 -73.796875 Z M 27.4375 -61.171875 "/></g></g></g><g fill="#000000" fill-opacity="1"><g transform="translate(65.546745, 242.266933)"><g><path d="M 18.71875 0 L 5.40625 0 L 5.40625 -74 L 18.71875 -74 Z M 18.71875 0 "/></g></g></g><g fill="#000000" fill-opacity="1"><g transform="translate(89.576762, 242.266933)"><g><path d="M 60.875 -26.9375 C 60.875 -25.9375 60.835938 -25.066406 60.765625 -24.328125 C 60.703125 -23.597656 60.570312 -22.765625 60.375 -21.828125 L 17.421875 -21.828125 C 18.222656 -18.492188 19.988281 -15.835938 22.71875 -13.859375 C 25.457031 -11.890625 28.796875 -10.90625 32.734375 -10.90625 C 35.472656 -10.90625 37.773438 -11.320312 39.640625 -12.15625 C 41.515625 -13 43.285156 -14.421875 44.953125 -16.421875 L 59.46875 -16.421875 C 58.269531 -12.617188 56.285156 -9.394531 53.515625 -6.75 C 50.742188 -4.113281 47.570312 -2.113281 44 -0.75 C 40.425781 0.613281 36.773438 1.296875 33.046875 1.296875 C 28.835938 1.296875 24.910156 0.5625 21.265625 -0.90625 C 17.628906 -2.375 14.441406 -4.425781 11.703125 -7.0625 C 8.972656 -9.695312 6.835938 -12.75 5.296875 -16.21875 C 3.765625 -19.6875 3 -23.457031 3 -27.53125 C 3 -31.601562 3.75 -35.40625 5.25 -38.9375 C 6.757812 -42.476562 8.847656 -45.582031 11.515625 -48.25 C 14.179688 -50.925781 17.28125 -53.015625 20.8125 -54.515625 C 24.351562 -56.015625 28.160156 -56.765625 32.234375 -56.765625 C 37.773438 -56.765625 42.695312 -55.476562 47 -52.90625 C 51.3125 -50.34375 54.703125 -46.804688 57.171875 -42.296875 C 59.640625 -37.796875 60.875 -32.675781 60.875 -26.9375 Z M 47.765625 -33.546875 C 46.890625 -37.078125 45.148438 -39.796875 42.546875 -41.703125 C 39.941406 -43.609375 36.570312 -44.5625 32.4375 -44.5625 C 28.5 -44.5625 25.210938 -43.609375 22.578125 -41.703125 C 19.941406 -39.796875 18.085938 -37.078125 17.015625 -33.546875 Z M 47.765625 -33.546875 "/></g></g></g><g fill="#000000" fill-opacity="1"><g transform="translate(153.656805, 242.266933)"><g/></g></g><g fill="#000000" fill-opacity="1"><g transform="translate(181.691829, 242.266933)"><g><path d="M 61.578125 0 L 49.359375 0 L 49.359375 -7.203125 C 46.691406 -4.203125 43.9375 -2.035156 41.09375 -0.703125 C 38.257812 0.628906 34.875 1.296875 30.9375 1.296875 C 25.53125 1.296875 20.722656 0.0625 16.515625 -2.40625 C 12.316406 -4.875 9.015625 -8.289062 6.609375 -12.65625 C 4.203125 -17.03125 3 -21.988281 3 -27.53125 C 3 -33.207031 4.21875 -38.226562 6.65625 -42.59375 C 9.09375 -46.96875 12.429688 -50.421875 16.671875 -52.953125 C 20.910156 -55.492188 25.765625 -56.765625 31.234375 -56.765625 C 35.242188 -56.765625 38.695312 -56.082031 41.59375 -54.71875 C 44.5 -53.351562 47.085938 -51.132812 49.359375 -48.0625 L 49.359375 -55.46875 L 61.578125 -55.46875 Z M 48.96875 -27.328125 C 48.96875 -30.734375 48.265625 -33.722656 46.859375 -36.296875 C 45.453125 -38.867188 43.53125 -40.890625 41.09375 -42.359375 C 38.664062 -43.828125 35.847656 -44.5625 32.640625 -44.5625 C 29.503906 -44.5625 26.703125 -43.828125 24.234375 -42.359375 C 21.765625 -40.890625 19.84375 -38.851562 18.46875 -36.25 C 17.101562 -33.644531 16.421875 -30.640625 16.421875 -27.234375 C 16.421875 -22.359375 17.9375 -18.414062 20.96875 -15.40625 C 24.007812 -12.40625 27.96875 -10.90625 32.84375 -10.90625 C 36.25 -10.90625 39.148438 -11.640625 41.546875 -13.109375 C 43.953125 -14.578125 45.789062 -16.546875 47.0625 -19.015625 C 48.332031 -21.492188 48.96875 -24.265625 48.96875 -27.328125 Z M 48.96875 -27.328125 "/></g></g></g><g fill="#000000" fill-opacity="1"><g transform="translate(247.774371, 242.266933)"><g><path d="M 88.609375 0 L 75.296875 0 L 75.296875 -30.4375 C 75.296875 -34.175781 74.859375 -37.0625 73.984375 -39.09375 C 73.117188 -41.132812 71.898438 -42.554688 70.328125 -43.359375 C 68.765625 -44.160156 66.945312 -44.5625 64.875 -44.5625 C 61.207031 -44.5625 58.421875 -43.34375 56.515625 -40.90625 C 54.617188 -38.46875 53.671875 -33.941406 53.671875 -27.328125 L 53.671875 0 L 40.34375 0 L 40.34375 -30.4375 C 40.34375 -35.90625 39.425781 -39.625 37.59375 -41.59375 C 35.757812 -43.570312 33.070312 -44.5625 29.53125 -44.5625 C 25.664062 -44.5625 22.894531 -43.320312 21.21875 -40.84375 C 19.550781 -38.375 18.71875 -33.867188 18.71875 -27.328125 L 18.71875 0 L 5.40625 0 L 5.40625 -55.46875 L 17.625 -55.46875 L 17.625 -50.265625 C 19.5625 -52.597656 21.628906 -54.265625 23.828125 -55.265625 C 26.035156 -56.265625 28.773438 -56.765625 32.046875 -56.765625 C 35.847656 -56.765625 39.050781 -56.082031 41.65625 -54.71875 C 44.257812 -53.351562 46.492188 -51.164062 48.359375 -48.15625 C 50.628906 -51.164062 53.195312 -53.351562 56.0625 -54.71875 C 58.9375 -56.082031 62.3125 -56.765625 66.1875 -56.765625 C 73.53125 -56.765625 79.101562 -54.726562 82.90625 -50.65625 C 86.707031 -46.59375 88.609375 -40.390625 88.609375 -32.046875 Z M 88.609375 0 "/></g></g></g><path stroke-linecap="butt" transform="matrix(0.413789, -0.625523, 0.625523, 0.413789, 142.585234, 242.733836)" fill="none" stroke-linejoin="miter" d="M 0.00197125 7.499799 L 94.828868 7.499724 " stroke="#18139c" stroke-width="15" stroke-opacity="1" stroke-miterlimit="4"/><path stroke-linecap="butt" transform="matrix(0.442918, 0.605247, -0.605247, 0.442918, 152.798402, 184.179391)" fill="none" stroke-linejoin="miter" d="M -0.00234607 7.500328 L 95.082381 7.5027 " stroke="#3426fe" stroke-width="15" stroke-opacity="1" stroke-miterlimit="4"/></svg>