<svg xmlns="http://www.w3.org/2000/svg" xmlns:xlink="http://www.w3.org/1999/xlink" width="250" zoomAndPan="magnify" viewBox="0 0 187.5 52.499999" height="70" preserveAspectRatio="xMidYMid meet" version="1.0"><defs><g/><clipPath id="c4ea8ae307"><path d="M 4 0 L 186 0 L 186 52.003906 L 4 52.003906 Z M 4 0 " clip-rule="nonzero"/></clipPath><clipPath id="4574fbf9dc"><path d="M 0.679688 0 L 181.359375 0 L 181.359375 52.003906 L 0.679688 52.003906 Z M 0.679688 0 " clip-rule="nonzero"/></clipPath><clipPath id="5b7c12f598"><rect x="0" width="182" y="0" height="53"/></clipPath><clipPath id="902ae60635"><path d="M 30 0 L 125 0 L 125 52.003906 L 30 52.003906 Z M 30 0 " clip-rule="nonzero"/></clipPath><clipPath id="93965451a0"><path d="M 31 0 L 127 0 L 127 52.003906 L 31 52.003906 Z M 31 0 " clip-rule="nonzero"/></clipPath><clipPath id="173f668bd5"><rect x="0" width="182" y="0" height="53"/></clipPath></defs><g clip-path="url(#c4ea8ae307)"><g transform="matrix(1, 0, 0, 1, 4, 0)"><g clip-path="url(#173f668bd5)"><g clip-path="url(#4574fbf9dc)"><g transform="matrix(1, 0, 0, 1, -0.000000000000000888, 0)"><g clip-path="url(#5b7c12f598)"><g fill="#000000" fill-opacity="1"><g transform="translate(0.729829, 46.634362)"><g><path d="M 16.265625 -36.28125 L 15.5 -36.28125 C 13.957031 -36.28125 12.890625 -35.992188 12.296875 -35.421875 C 11.703125 -34.847656 11.382812 -33.804688 11.34375 -32.296875 L 15.796875 -32.296875 L 15.796875 -25.703125 L 11.34375 -25.703125 L 11.34375 0 L 3.4375 0 L 3.4375 -25.703125 L 0.59375 -25.703125 L 0.59375 -32.296875 L 3.4375 -32.296875 C 3.757812 -35.191406 4.414062 -37.476562 5.40625 -39.15625 C 6.394531 -40.84375 7.648438 -42.050781 9.171875 -42.78125 C 10.691406 -43.507812 12.40625 -43.875 14.3125 -43.875 C 14.582031 -43.875 14.859375 -43.875 15.140625 -43.875 C 15.421875 -43.875 15.796875 -43.835938 16.265625 -43.765625 Z M 16.265625 -36.28125 "/></g></g></g><g fill="#000000" fill-opacity="1"><g transform="translate(17.355594, 46.634362)"><g><path d="M 11.109375 0 L 3.203125 0 L 3.203125 -43.875 L 11.109375 -43.875 Z M 11.109375 0 "/></g></g></g><g fill="#000000" fill-opacity="1"><g transform="translate(31.606247, 46.634362)"><g><path d="M 36.09375 -15.96875 C 36.09375 -15.375 36.070312 -14.859375 36.03125 -14.421875 C 36 -13.992188 35.921875 -13.5 35.796875 -12.9375 L 10.328125 -12.9375 C 10.804688 -10.957031 11.851562 -9.382812 13.46875 -8.21875 C 15.09375 -7.050781 17.078125 -6.46875 19.421875 -6.46875 C 21.035156 -6.46875 22.394531 -6.710938 23.5 -7.203125 C 24.613281 -7.703125 25.664062 -8.546875 26.65625 -9.734375 L 35.265625 -9.734375 C 34.554688 -7.484375 33.378906 -5.570312 31.734375 -4 C 30.085938 -2.4375 28.207031 -1.25 26.09375 -0.4375 C 23.976562 0.363281 21.8125 0.765625 19.59375 0.765625 C 17.101562 0.765625 14.773438 0.332031 12.609375 -0.53125 C 10.453125 -1.40625 8.5625 -2.625 6.9375 -4.1875 C 5.320312 -5.75 4.054688 -7.554688 3.140625 -9.609375 C 2.234375 -11.671875 1.78125 -13.910156 1.78125 -16.328125 C 1.78125 -18.742188 2.222656 -21 3.109375 -23.09375 C 4.003906 -25.195312 5.242188 -27.039062 6.828125 -28.625 C 8.410156 -30.207031 10.25 -31.441406 12.34375 -32.328125 C 14.445312 -33.222656 16.707031 -33.671875 19.125 -33.671875 C 22.40625 -33.671875 25.320312 -32.90625 27.875 -31.375 C 30.425781 -29.851562 32.429688 -27.753906 33.890625 -25.078125 C 35.359375 -22.410156 36.09375 -19.375 36.09375 -15.96875 Z M 28.328125 -19.890625 C 27.804688 -21.984375 26.773438 -23.59375 25.234375 -24.71875 C 23.691406 -25.851562 21.691406 -26.421875 19.234375 -26.421875 C 16.898438 -26.421875 14.953125 -25.851562 13.390625 -24.71875 C 11.828125 -23.59375 10.726562 -21.984375 10.09375 -19.890625 Z M 28.328125 -19.890625 "/></g></g></g><g fill="#000000" fill-opacity="1"><g transform="translate(69.607987, 46.634362)"><g/></g></g><g fill="#000000" fill-opacity="1"><g transform="translate(86.233751, 46.634362)"><g><path d="M 36.515625 0 L 29.265625 0 L 29.265625 -4.28125 C 27.679688 -2.5 26.046875 -1.210938 24.359375 -0.421875 C 22.679688 0.367188 20.675781 0.765625 18.34375 0.765625 C 15.132812 0.765625 12.285156 0.0351562 9.796875 -1.421875 C 7.304688 -2.890625 5.347656 -4.921875 3.921875 -7.515625 C 2.492188 -10.109375 1.78125 -13.046875 1.78125 -16.328125 C 1.78125 -19.691406 2.5 -22.671875 3.9375 -25.265625 C 5.382812 -27.859375 7.363281 -29.90625 9.875 -31.40625 C 12.394531 -32.914062 15.28125 -33.671875 18.53125 -33.671875 C 20.90625 -33.671875 22.953125 -33.265625 24.671875 -32.453125 C 26.390625 -31.640625 27.921875 -30.320312 29.265625 -28.5 L 29.265625 -32.890625 L 36.515625 -32.890625 Z M 29.03125 -16.203125 C 29.03125 -18.222656 28.613281 -19.992188 27.78125 -21.515625 C 26.957031 -23.046875 25.820312 -24.242188 24.375 -25.109375 C 22.925781 -25.984375 21.253906 -26.421875 19.359375 -26.421875 C 17.492188 -26.421875 15.828125 -25.984375 14.359375 -25.109375 C 12.898438 -24.242188 11.765625 -23.035156 10.953125 -21.484375 C 10.140625 -19.941406 9.734375 -18.164062 9.734375 -16.15625 C 9.734375 -13.257812 10.632812 -10.921875 12.4375 -9.140625 C 14.238281 -7.359375 16.582031 -6.46875 19.46875 -6.46875 C 21.488281 -6.46875 23.210938 -6.898438 24.640625 -7.765625 C 26.066406 -8.640625 27.15625 -9.8125 27.90625 -11.28125 C 28.65625 -12.75 29.03125 -14.390625 29.03125 -16.203125 Z M 29.03125 -16.203125 "/></g></g></g><g fill="#000000" fill-opacity="1"><g transform="translate(125.423045, 46.634362)"><g><path d="M 52.546875 0 L 44.65625 0 L 44.65625 -18.046875 C 44.65625 -20.265625 44.394531 -21.976562 43.875 -23.1875 C 43.363281 -24.394531 42.640625 -25.234375 41.703125 -25.703125 C 40.773438 -26.179688 39.695312 -26.421875 38.46875 -26.421875 C 36.289062 -26.421875 34.640625 -25.695312 33.515625 -24.25 C 32.390625 -22.8125 31.828125 -20.128906 31.828125 -16.203125 L 31.828125 0 L 23.921875 0 L 23.921875 -18.046875 C 23.921875 -21.296875 23.375 -23.503906 22.28125 -24.671875 C 21.195312 -25.835938 19.609375 -26.421875 17.515625 -26.421875 C 15.222656 -26.421875 13.582031 -25.6875 12.59375 -24.21875 C 11.601562 -22.757812 11.109375 -20.085938 11.109375 -16.203125 L 11.109375 0 L 3.203125 0 L 3.203125 -32.890625 L 10.453125 -32.890625 L 10.453125 -29.8125 C 11.597656 -31.195312 12.820312 -32.1875 14.125 -32.78125 C 15.4375 -33.375 17.0625 -33.671875 19 -33.671875 C 21.257812 -33.671875 23.160156 -33.265625 24.703125 -32.453125 C 26.242188 -31.640625 27.566406 -30.34375 28.671875 -28.5625 C 30.023438 -30.34375 31.550781 -31.640625 33.25 -32.453125 C 34.945312 -33.265625 36.945312 -33.671875 39.25 -33.671875 C 43.601562 -33.671875 46.90625 -32.460938 49.15625 -30.046875 C 51.414062 -27.628906 52.546875 -23.945312 52.546875 -19 Z M 52.546875 0 "/></g></g></g></g></g></g><g clip-path="url(#902ae60635)"><path stroke-linecap="butt" transform="matrix(0.574205, -0.868023, 0.868023, 0.574205, 63.217927, 47.02474)" fill="none" stroke-linejoin="miter" d="M 0.000118649 2.997983 L 40.526449 3.001457 " stroke="#18139c" stroke-width="6" stroke-opacity="1" stroke-miterlimit="4"/></g><g clip-path="url(#93965451a0)"><path stroke-linecap="butt" transform="matrix(0.614626, 0.839886, -0.839886, 0.614626, 68.924987, 12.31564)" fill="none" stroke-linejoin="miter" d="M 0.00101734 2.999646 L 40.634588 3.001799 " stroke="#3426fe" stroke-width="6" stroke-opacity="1" stroke-miterlimit="4"/></g></g></g></g></svg>