<?xml version="1.0"?>
<svg width="333" height="107.999997408" xmlns="http://www.w3.org/2000/svg" xmlns:svg="http://www.w3.org/2000/svg" preserveAspectRatio="xMidYMid meet" version="1.0">
 <defs>
  <g id="svg_1"/>
  <clipPath id="7589ac2e8c">
   <path clip-rule="nonzero" d="m29.34,220.04l13.19,0l0,50.03l-13.19,0l0,-50.03zm0,0" id="svg_2"/>
  </clipPath>
  <clipPath id="e49971ddbd">
   <path clip-rule="nonzero" d="m35.93,220.04c3.65,0 6.6,2.95 6.6,6.59l0,36.83c0,3.65 -2.95,6.6 -6.6,6.6c-3.64,0 -6.59,-2.95 -6.59,-6.6l0,-36.83c0,-3.64 2.95,-6.59 6.59,-6.59zm0,0" id="svg_3"/>
  </clipPath>
  <clipPath id="652d88331d">
   <path clip-rule="nonzero" d="m0.34,0.04l13.19,0l0,50.03l-13.19,0l0,-50.03zm0,0" id="svg_4"/>
  </clipPath>
  <clipPath id="4086f02819">
   <path clip-rule="nonzero" d="m6.93,0.04c3.65,0 6.6,2.95 6.6,6.59l0,36.83c0,3.65 -2.95,6.6 -6.6,6.6c-3.64,0 -6.59,-2.95 -6.59,-6.6l0,-36.83c0,-3.64 2.95,-6.59 6.59,-6.59zm0,0" id="svg_5"/>
  </clipPath>
  <clipPath id="bac0048630">
   <rect height="51" id="svg_6" width="14" x="0" y="0"/>
  </clipPath>
 </defs>
 <g class="layer">
  <title>Layer 1</title>
  <g fill="#000000" id="svg_7" transform="translate(0.769231 -0.25641) translate(1.28205 2.5641) matrix(1 0 0 1 -20 -165.385)">
   <g id="svg_8" transform="translate(23.490237, 243.202088)">
    <g id="svg_9">
     <path d="m27.44,-61.17l-1.31,0c-2.6,0 -4.4,0.48 -5.41,1.45c-1,0.97 -1.53,2.72 -1.59,5.25l7.51,0l0,11.11l-7.51,0l0,43.36l-13.32,0l0,-43.36l-4.81,0l0,-11.11l4.81,0c0.53,-4.87 1.63,-8.73 3.3,-11.56c1.66,-2.83 3.78,-4.87 6.36,-6.11c2.57,-1.24 5.46,-1.86 8.66,-1.86c0.46,0 0.93,0 1.4,0c0.47,0 1.1,0.07 1.91,0.2l0,12.63zm0,0" id="svg_10"/>
    </g>
   </g>
  </g>
  <g fill="#000000" id="svg_11" transform="translate(-0.25641 2.5641) matrix(1 0 0 1 -15.1282 -165.385)">
   <g id="svg_12" transform="translate(51.525262, 243.202088)">
    <g id="svg_13">
     <path d="m18.72,0l-13.31,0l0,-74l13.31,0l0,74zm0,0" id="svg_14"/>
    </g>
   </g>
  </g>
  <g fill="#000000" id="svg_15" transform="translate(0.512821 0.769231) translate(-3.07692 3.07692) matrix(1 0 0 1 -11.5384 -168.206)">
   <g id="svg_16" transform="translate(75.555278, 243.202088)">
    <g id="svg_17">
     <path d="m60.88,-26.94c0,1 -0.04,1.87 -0.11,2.61c-0.07,0.73 -0.2,1.56 -0.39,2.5l-42.96,0c0.8,3.34 2.57,5.99 5.3,7.97c2.74,1.97 6.08,2.95 10.01,2.95c2.74,0 5.04,-0.41 6.91,-1.25c1.88,-0.84 3.65,-2.26 5.31,-4.26l14.52,0c-1.2,3.8 -3.18,7.03 -5.95,9.67c-2.78,2.64 -5.95,4.64 -9.52,6c-3.57,1.36 -7.23,2.05 -10.95,2.05c-4.21,0 -8.14,-0.74 -11.78,-2.21c-3.64,-1.47 -6.83,-3.52 -9.57,-6.15c-2.73,-2.64 -4.86,-5.69 -6.4,-9.16c-1.53,-3.47 -2.3,-7.24 -2.3,-11.31c0,-4.07 0.75,-7.88 2.25,-11.41c1.51,-3.54 3.6,-6.64 6.27,-9.31c2.66,-2.68 5.76,-4.77 9.29,-6.27c3.54,-1.5 7.35,-2.25 11.42,-2.25c5.54,0 10.47,1.29 14.77,3.86c4.31,2.57 7.7,6.11 10.17,10.61c2.47,4.5 3.71,9.62 3.71,15.36zm-13.11,-6.61c-0.88,-3.53 -2.62,-6.25 -5.22,-8.15c-2.61,-1.91 -5.98,-2.86 -10.11,-2.86c-3.94,0 -7.23,0.95 -9.86,2.86c-2.64,1.9 -4.49,4.62 -5.56,8.15l30.75,0zm0,0" id="svg_18"/>
    </g>
   </g>
  </g>
  <g fill="#000000" id="svg_19">
   <g id="svg_20" transform="translate(139.64648, 243.202088)">
    <g id="svg_21"/>
   </g>
  </g>
  <g fill="#000000" id="svg_22">
   <g id="svg_23" transform="translate(167.681504, 243.202088)">
    <g id="svg_24"/>
   </g>
  </g>
  <g fill="#000000" id="svg_25" transform="translate(0 0.25641) translate(-0.25641 1.02564) matrix(1 0 0 1 -22.0513 -164.359)">
   <g id="svg_26" transform="translate(195.720695, 243.202088)">
    <g id="svg_27">
     <path d="m61.58,0l-12.22,0l0,-7.2c-2.67,3 -5.42,5.16 -8.27,6.5c-2.83,1.33 -6.21,2 -10.15,2c-5.41,0 -10.22,-1.24 -14.42,-3.71c-4.2,-2.47 -7.5,-5.88 -9.91,-10.25c-2.41,-4.37 -3.61,-9.33 -3.61,-14.87c0,-5.68 1.22,-10.7 3.66,-15.06c2.43,-4.38 5.77,-7.83 10.01,-10.36c4.24,-2.54 9.1,-3.82 14.56,-3.82c4.01,0 7.47,0.69 10.36,2.05c2.91,1.37 5.5,3.59 7.77,6.66l0,-7.41l12.22,0l0,55.47zm-12.61,-27.33c0,-3.4 -0.7,-6.39 -2.11,-8.97c-1.41,-2.57 -3.33,-4.59 -5.77,-6.06c-2.43,-1.47 -5.24,-2.2 -8.45,-2.2c-3.14,0 -5.94,0.73 -8.41,2.2c-2.46,1.47 -4.39,3.51 -5.76,6.11c-1.37,2.61 -2.05,5.61 -2.05,9.02c0,4.87 1.52,8.82 4.55,11.82c3.04,3 7,4.5 11.87,4.5c3.41,0 6.31,-0.73 8.71,-2.2c2.4,-1.47 4.24,-3.44 5.51,-5.91c1.27,-2.47 1.91,-5.25 1.91,-8.31zm0,0" id="svg_28"/>
    </g>
   </g>
  </g>
  <g fill="#000000" id="svg_29" transform="translate(0.25641 0.512821) translate(-0.25641 2.82051) matrix(1 0 0 1 -22.5641 -166.154)">
   <g id="svg_30" transform="translate(261.803237, 243.202088)">
    <g id="svg_31">
     <path d="m88.61,0l-13.31,0l0,-30.44c0,-3.74 -0.44,-6.62 -1.32,-8.65c-0.86,-2.04 -2.08,-3.46 -3.65,-4.27c-1.56,-0.8 -3.38,-1.2 -5.45,-1.2c-3.67,0 -6.46,1.22 -8.36,3.65c-1.9,2.44 -2.85,6.97 -2.85,13.58l0,27.33l-13.33,0l0,-30.44c0,-5.47 -0.91,-9.19 -2.75,-11.15c-1.83,-1.98 -4.52,-2.97 -8.06,-2.97c-3.87,0 -6.64,1.24 -8.31,3.72c-1.67,2.46 -2.5,6.97 -2.5,13.51l0,27.33l-13.31,0l0,-55.47l12.22,0l0,5.2c1.93,-2.33 4,-4 6.2,-5c2.21,-1 4.94,-1.5 8.22,-1.5c3.8,0 7,0.69 9.61,2.05c2.6,1.37 4.83,3.56 6.7,6.56c2.27,-3 4.84,-5.19 7.7,-6.56c2.88,-1.36 6.25,-2.05 10.13,-2.05c7.34,0 12.91,2.04 16.72,6.11c3.8,4.07 5.7,10.27 5.7,18.61l0,32.05zm0,0" id="svg_32"/>
    </g>
   </g>
  </g>
  <path d="m128.82,80.71l39.24,-59.32" fill="none" id="svg_33" stroke="#18139c" stroke-miterlimit="4" stroke-width="15"/>
  <path d="m129.28,22.12l42.11,57.55" fill="none" id="svg_34" stroke="#3426fe" stroke-miterlimit="4" stroke-width="15"/>
  <g clip-path="url(#7589ac2e8c)" id="svg_35" transform="translate(2.05128 -0.769231) matrix(1 0 0 1 -20 -165.385)">
   <g clip-path="url(#e49971ddbd)" id="svg_36">
    <g id="svg_37" transform="matrix(1, 0, 0, 1, 29, 220)">
     <g clip-path="url(#bac0048630)" id="svg_38">
      <g clip-path="url(#652d88331d)" id="svg_39">
       <g clip-path="url(#4086f02819)" id="svg_40">
        <path d="m0.34,0.04l13.19,0l0,50.03l-13.19,0l0,-50.03zm0,0" fill="#000000" fill-rule="nonzero" id="svg_41"/>
       </g>
      </g>
     </g>
    </g>
   </g>
  </g>
 </g>
</svg>